<?xml version="1.0" standalone="no"?>
<!DOCTYPE svg PUBLIC "-//W3C//DTD SVG 20010904//EN"
 "http://www.w3.org/TR/2001/REC-SVG-20010904/DTD/svg10.dtd">
<svg version="1.0" xmlns="http://www.w3.org/2000/svg"
 width="260.000000pt" height="260.000000pt" viewBox="0 0 260.000000 260.000000"
 preserveAspectRatio="xMidYMid meet">
<metadata>
Created by potrace 1.14, written by Peter Selinger 2001-2017
</metadata>
<g transform="translate(0.000000,260.000000) scale(0.100000,-0.100000)"
fill="#000000" stroke="none">
<path d="M0 1300 l0 -1300 1300 0 1300 0 0 1300 0 1300 -1300 0 -1300 0 0
-1300z m1705 949 c34 -17 57 -38 72 -65 38 -67 39 -129 8 -327 -16 -97 -32
-182 -35 -188 -5 -7 -356 -68 -402 -69 -5 0 -8 43 -8 95 0 114 -1 115 -98 91
-89 -22 -102 -37 -112 -127 -26 -236 -23 -748 5 -786 13 -17 18 -17 121 10 60
15 109 29 110 30 1 1 5 32 9 69 l7 67 -63 -2 -64 -2 -3 162 -2 162 42 6 c24 3
135 16 248 29 168 18 206 20 208 9 3 -11 -107 -845 -111 -849 -1 -1 -123 -30
-272 -64 -297 -68 -340 -71 -430 -29 -59 28 -129 106 -154 173 -46 123 -75
467 -75 876 0 339 9 423 54 528 31 71 95 127 176 152 124 38 454 79 614 77 92
-2 113 -6 155 -28z"/>
</g>
</svg>
